<?xml version="1.0" encoding="utf-8"?>
<!-- Generator: Adobe Illustrator 23.0.4, SVG Export Plug-In . SVG Version: 6.00 Build 0)  -->
<svg version="1.1" id="图层_1" xmlns="http://www.w3.org/2000/svg" xmlns:xlink="http://www.w3.org/1999/xlink" x="0px" y="0px"
	 viewBox="0 0 154.8 31.7" style="enable-background:new 0 0 154.8 31.7;" xml:space="preserve">
<style type="text/css">
	.st0{fill:url(#SVGID_1_);}
	.st1{fill:url(#SVGID_2_);}
	.st2{fill:url(#SVGID_3_);}
	.st3{fill:url(#SVGID_4_);}
	.st4{fill:url(#SVGID_5_);}
	.st5{fill:url(#SVGID_6_);}
	.st6{fill:#494949;}
</style>
<title>画板 42 副本 14</title>
<g>
	<g>
		
			<linearGradient id="SVGID_1_" gradientUnits="userSpaceOnUse" x1="920.0957" y1="1103.4659" x2="929.8296" y2="1096.1986" gradientTransform="matrix(0.7071 0.7071 0.7071 -0.7071 -1425.9574 140.9854)">
			<stop  offset="0.32" style="stop-color:#1369C8"/>
			<stop  offset="1" style="stop-color:#45A2FF"/>
		</linearGradient>
		<path class="st0" d="M3.2,8.7l6,6c2.4,2.4,2.4,6.2,0,8.6l0,0l0,0l-7.9-7.9c-1.4-1.4-1.4-3.6,0-5l1.7-1.7C3,8.6,3.1,8.6,3.2,8.7
			C3.2,8.7,3.2,8.7,3.2,8.7z"/>
		
			<linearGradient id="SVGID_2_" gradientUnits="userSpaceOnUse" x1="5.0491" y1="421.478" x2="2.4372" y2="417.3381" gradientTransform="matrix(1 0 0 -1 0 433.8698)">
			<stop  offset="0" style="stop-color:#5FABF5"/>
			<stop  offset="0.75" style="stop-color:#77CBFF"/>
			<stop  offset="0.99" style="stop-color:#5EBDFF"/>
		</linearGradient>
		<path class="st1" d="M3.7,8.4L3.7,8.4l-2.4,2.4c-0.1,0.1-0.1,0.1-0.2,0.2c-1.2,1.2-1.2,3.1,0,4.3l4.3,4.3
			c-1.2-1.2-1.2-3.2-0.2-4.3l2.2-2.4l0,0"/>
		
			<linearGradient id="SVGID_3_" gradientUnits="userSpaceOnUse" x1="10.7948" y1="437.7884" x2="4.2703" y2="416.9196" gradientTransform="matrix(1 0 0 -1 0 433.8698)">
			<stop  offset="4.000000e-02" style="stop-color:#226DBD"/>
			<stop  offset="0.9" style="stop-color:#56ABFB"/>
		</linearGradient>
		<path class="st2" d="M12,0.3L11.7,0c0,0-0.1,0-0.1,0c0,0,0,0,0,0L3.4,8.2l0,0l-2.4,2.4C1,10.6,1,10.7,0.9,10.7
			c-1.2,1.2-1.2,3.1,0,4.3l4.3,4.3c-1.2-1.2-1.2-3.1,0-4.3c0,0,0,0,0,0l2.2-2.2l0,0l3.7-3.7l0,0L12,8.3C14.2,6.1,14.2,2.5,12,0.3z"
			/>
		
			<linearGradient id="SVGID_4_" gradientUnits="userSpaceOnUse" x1="-7999.1392" y1="-2121.6531" x2="-7989.4053" y2="-2128.9204" gradientTransform="matrix(-0.7071 -0.7071 -0.7071 0.7071 -7134.4897 -4135.6255)">
			<stop  offset="0.32" style="stop-color:#1369C8"/>
			<stop  offset="1" style="stop-color:#45A2FF"/>
		</linearGradient>
		<path class="st3" d="M23.7,23l-6-6c-2.4-2.4-2.4-6.2,0-8.6v0l0,0l0,0l7.9,7.9c1.4,1.4,1.4,3.6,0,5L24,23
			C23.9,23.1,23.8,23.1,23.7,23L23.7,23z"/>
		
			<linearGradient id="SVGID_5_" gradientUnits="userSpaceOnUse" x1="-8582.291" y1="4447.8301" x2="-8584.9033" y2="4443.6875" gradientTransform="matrix(-1 0 0 1 -8560.4375 -4428.5098)">
			<stop  offset="0" style="stop-color:#5FABF5"/>
			<stop  offset="0.75" style="stop-color:#77CBFF"/>
			<stop  offset="0.99" style="stop-color:#5EBDFF"/>
		</linearGradient>
		<path class="st4" d="M23.2,23.3L23.2,23.3l2.4-2.4c0.1-0.1,0.1-0.1,0.2-0.2c1.2-1.2,1.2-3.1,0-4.3c0,0,0,0,0,0l-4.3-4.3
			c1.2,1.2,1.2,3.2,0.2,4.3l-2.2,2.4l0,0"/>
		
			<linearGradient id="SVGID_6_" gradientUnits="userSpaceOnUse" x1="-8576.5439" y1="4464.1367" x2="-8583.0713" y2="4443.2681" gradientTransform="matrix(-1 0 0 1 -8560.4375 -4428.5098)">
			<stop  offset="4.000000e-02" style="stop-color:#226DBD"/>
			<stop  offset="0.9" style="stop-color:#56ABFB"/>
		</linearGradient>
		<path class="st5" d="M14.9,31.4l0.3,0.3c0,0,0.1,0,0.1,0l8.2-8.2l0,0l2.4-2.4c0.1-0.1,0.1-0.1,0.2-0.2c1.2-1.2,1.2-3.1,0-4.3
			l-4.3-4.3c1.2,1.2,1.2,3.1,0,4.3l-2.2,2.2l0,0l-3.7,3.7l0,0l-0.9,0.9C12.7,25.6,12.7,29.2,14.9,31.4
			C14.9,31.4,14.9,31.4,14.9,31.4z"/>
	</g>
	<g>
		<path class="st6" d="M35.4,6.2h7.3c1.1,0,2.2,0.2,3.2,0.8c0.9,0.5,1.7,1.2,2.3,2.1c1.1,1.9,1.1,4.2,0,6.1
			c-0.6,0.9-1.4,1.6-2.3,2.1c-1,0.5-2.1,0.8-3.2,0.8h-4.3v7.5h-3V6.2z M42.8,15.2c0.6,0,1.2-0.1,1.7-0.4c1.4-0.8,1.9-2.6,1.1-4.1
			c-0.3-0.5-0.6-0.9-1.1-1.1c-0.5-0.3-1.1-0.4-1.7-0.4h-4.3v6.1H42.8z"/>
		<path class="st6" d="M51.2,9.6c-0.8-0.8-0.8-2.1,0-2.9c0.8-0.8,2.1-0.8,2.9,0c0.8,0.8,0.8,2.1,0,2.9c-0.4,0.4-0.9,0.6-1.4,0.6
			C52.1,10.2,51.6,10,51.2,9.6z"/>
		<rect x="51.2" y="11.8" class="st6" width="3" height="13.8"/>
		<path class="st6" d="M57.8,11.6h2.9v1.9h0.1c0.4-0.7,1.1-1.3,1.8-1.6c0.8-0.4,1.6-0.7,2.5-0.7c1.7,0,3,0.5,3.9,1.5
			c0.9,1,1.3,2.4,1.3,4.1v8.9h-3v-8.5c0-1.1-0.3-1.9-0.8-2.4C66,14.2,65.2,14,64.3,14c-0.6,0-1.3,0.2-1.8,0.6
			c-0.5,0.4-1,0.9-1.2,1.5c-0.3,0.6-0.4,1.3-0.4,2v7.6h-3V11.6z"/>
		<path class="st6" d="M75.4,30.5c-1-0.7-1.8-1.6-2.2-2.8h3.5c0.2,0.2,0.4,0.4,0.7,0.6c0.7,0.4,1.5,0.7,2.3,0.7c1.3,0,2.3-0.4,3-1.1
			c0.7-0.8,1.1-1.8,1.1-3.2v-1.3h-0.2c-0.5,0.7-1.1,1.2-1.8,1.5c-0.8,0.4-1.7,0.6-2.6,0.6c-1.1,0-2.3-0.3-3.2-0.9
			c-1-0.6-1.8-1.5-2.4-2.5c-0.6-1.2-0.9-2.5-0.9-3.8c0-1.3,0.3-2.6,0.9-3.8c0.5-1.1,1.4-1.9,2.4-2.6c1-0.6,2.1-0.9,3.2-0.9
			c0.9,0,1.8,0.2,2.6,0.6c0.7,0.4,1.4,0.9,1.8,1.5h0.2v-1.7h2.8v13.1c0,1.3-0.3,2.7-0.9,3.8c-0.5,1-1.4,1.9-2.4,2.4
			c-1.1,0.6-2.4,0.8-3.6,0.8C77.9,31.7,76.5,31.3,75.4,30.5z M81.7,22.3c0.6-0.4,1.1-0.9,1.5-1.5c0.4-0.7,0.6-1.6,0.5-2.4
			c0-1.4-0.4-2.5-1.2-3.3c-0.7-0.8-1.8-1.2-2.9-1.2c-0.7,0-1.4,0.2-2,0.5c-0.6,0.4-1.1,0.9-1.5,1.5c-0.7,1.5-0.7,3.3,0,4.8
			c0.3,0.6,0.8,1.2,1.5,1.5c0.6,0.4,1.3,0.5,2,0.5C80.3,22.8,81,22.7,81.7,22.3z"/>
		<path class="st6" d="M128.4,24.7c-1-0.6-1.8-1.5-2.4-2.6c-1.2-2.3-1.2-5.1,0-7.4c0.6-1.1,1.4-1.9,2.4-2.6c1-0.6,2.2-0.9,3.4-0.9
			c0.9,0,1.8,0.2,2.6,0.6c0.7,0.4,1.3,0.9,1.8,1.6l0,0V6.2h3v19.4h-2.8v-2.2h-0.1c-0.5,0.7-1.1,1.2-1.8,1.5
			c-0.8,0.4-1.7,0.7-2.6,0.6C130.6,25.6,129.4,25.3,128.4,24.7z M134.2,22.4c0.6-0.4,1.2-0.9,1.5-1.6c0.4-0.7,0.6-1.5,0.6-2.4
			c0-0.8-0.2-1.6-0.6-2.3c-0.3-0.7-0.9-1.2-1.5-1.6c-0.6-0.4-1.3-0.6-2-0.6c-0.7,0-1.4,0.2-2,0.6c-0.6,0.4-1.2,0.9-1.5,1.6
			c-0.4,0.7-0.6,1.5-0.6,2.3c0,0.8,0.2,1.6,0.6,2.4c0.4,0.7,0.9,1.2,1.5,1.6c0.6,0.4,1.3,0.6,2,0.6
			C132.9,22.9,133.6,22.7,134.2,22.4z"/>
		<path class="st6" d="M116.4,11.1c-4,0-7.3,3.2-7.3,7.2c0,4,3.2,7.3,7.2,7.3c0.9,0,1.8-0.1,2.6-0.5l4.3-4.3
			c1.4-3.7-0.5-7.8-4.2-9.2C118.2,11.3,117.3,11.1,116.4,11.1z M120.6,19.2l-3.3,3.3c-0.3,0.1-0.6,0.1-0.8,0.1
			c-2.3,0-4.2-1.9-4.2-4.2s1.9-4.2,4.2-4.2s4.2,1.9,4.2,4.2C120.7,18.6,120.6,18.9,120.6,19.2z"/>
		<path class="st6" d="M98.8,6.2c4,0,7.4,2,8.8,5.7h-3.7c-1-2-2.8-3-5.1-3c-3.8,0-6.5,2.7-6.5,7s2.7,7,6.5,7c2.3,0,4.1-1,5.1-3h3.7
			c-1.4,3.7-4.9,5.7-8.8,5.7c-5.4,0-9.7-4-9.7-9.7S93.5,6.2,98.8,6.2z"/>
		<path class="st6" d="M144.7,24.7c-1.1-0.6-1.9-1.5-2.5-2.6c-0.6-1.1-0.9-2.4-0.9-3.7c0-1.3,0.3-2.5,0.9-3.6c0.6-1.1,1.4-2,2.4-2.6
			c1.1-0.7,2.3-1,3.5-1c1.2,0,2.5,0.3,3.6,0.9c1,0.6,1.8,1.5,2.3,2.5c0.5,1.1,0.8,2.3,0.8,3.6c0,0.4,0,0.8,0,1.2h-10.5
			c0,1,0.5,2,1.3,2.6c0.8,0.7,1.7,1,2.8,1c0.7,0,1.3-0.2,1.9-0.6c0.6-0.4,1.1-0.9,1.5-1.6h3c-0.2,0.5-0.3,0.9-0.6,1.3
			c-0.6,1-1.4,1.9-2.4,2.5c-1,0.7-2.2,1-3.4,1C147,25.6,145.8,25.3,144.7,24.7z M151.8,16.8c0-0.5-0.2-1-0.5-1.4
			c-0.3-0.5-0.7-0.9-1.2-1.2c-0.6-0.3-1.3-0.5-2-0.5c-0.9,0-1.7,0.3-2.4,0.8c-0.7,0.6-1.1,1.4-1.4,2.3H151.8z"/>
	</g>
</g>
</svg>
